<svg version="1.1" id="Layer_1" xmlns="http://www.w3.org/2000/svg" xmlns:xlink="http://www.w3.org/1999/xlink" x="0px" y="0px" width="100%" viewBox="0 0 111 112" enable-background="new 0 0 111 112" xml:space="preserve">
<path fill="#211E1C" opacity="1.000000" stroke="none" d="
M48.000000,1.000000 
	C53.022091,1.000000 58.044186,1.000000 63.696354,1.365952 
	C93.796158,4.799593 115.656746,35.578430 109.771103,65.716202 
	C104.672020,91.826340 82.206482,110.308159 55.879715,110.051254 
	C29.987402,109.798584 8.242211,91.058243 3.324897,64.758690 
	C-1.383284,39.577656 13.451922,13.550939 37.803696,4.369241 
	C41.150173,3.107471 44.598713,2.116399 48.000000,1.000000 
M45.017929,96.895454 
	C69.087318,99.834671 85.603500,84.636276 90.525818,68.429688 
	C92.061378,63.373878 93.466286,58.057529 93.548553,52.838657 
	C93.645241,46.704891 96.509583,44.622158 101.957947,44.668289 
	C96.989227,22.521093 76.159149,6.725710 54.266224,8.211921 
	C31.189438,9.778499 12.273781,27.554169 10.088191,49.854710 
	C7.707858,74.142319 22.891668,92.693275 45.017929,96.895454 
z" data-index="0" style="opacity: 1;"></path>

<path fill="#F7F4EE" opacity="1.000000" stroke="none" d="
M44.577766,96.845383 
	C22.891668,92.693275 7.707858,74.142319 10.088191,49.854710 
	C12.273781,27.554169 31.189438,9.778499 54.266224,8.211921 
	C76.159149,6.725710 96.989227,22.521093 101.957947,44.668289 
	C96.509583,44.622158 93.645241,46.704891 93.548553,52.838657 
	C93.466286,58.057529 92.061378,63.373878 90.525818,68.429688 
	C85.603500,84.636276 69.087318,99.834671 44.577766,96.845383 
M48.263676,61.863636 
	C52.728313,70.080605 59.778736,71.450417 64.614037,65.040306 
	C68.400597,60.020512 68.177368,51.205750 64.142220,46.408665 
	C60.208130,41.731720 54.318840,41.727470 50.441650,46.479374 
	C46.859310,50.869907 46.678852,55.878353 48.263676,61.863636 
M20.131777,55.418762 
	C21.215546,58.488525 21.587143,62.197788 23.596964,64.435997 
	C25.366798,66.406952 29.109671,67.872627 31.730679,67.546677 
	C37.032001,66.887383 40.409119,59.539558 39.462467,52.627239 
	C38.613522,46.428375 34.843620,42.124355 30.147764,41.992840 
	C25.067259,41.850548 21.461332,45.870014 20.211153,53.091656 
	C20.126852,53.578636 20.154974,54.085079 20.131777,55.418762 
z" data-index="2" style="opacity: 1;"></path>
<path fill="#272422" opacity="1.000000" stroke="none" d="
M48.146774,61.487549 
	C46.678852,55.878353 46.859310,50.869907 50.441650,46.479374 
	C54.318840,41.727470 60.208130,41.731720 64.142220,46.408665 
	C68.177368,51.205750 68.400597,60.020512 64.614037,65.040306 
	C59.778736,71.450417 52.728313,70.080605 48.146774,61.487549 
z" data-index="3" style="opacity: 1;"></path>
<path fill="#292624" opacity="1.000000" stroke="none" d="
M20.131292,55.000618 
	C20.154974,54.085079 20.126852,53.578636 20.211153,53.091656 
	C21.461332,45.870014 25.067259,41.850548 30.147764,41.992840 
	C34.843620,42.124355 38.613522,46.428375 39.462467,52.627239 
	C40.409119,59.539558 37.032001,66.887383 31.730679,67.546677 
	C29.109671,67.872627 25.366798,66.406952 23.596964,64.435997 
	C21.587143,62.197788 21.215546,58.488525 20.131292,55.000618 
z" data-index="4" style="opacity: 1;"></path>
</svg>